<?xml version="1.0" standalone="no"?><!DOCTYPE svg PUBLIC "-//W3C//DTD SVG 1.1//EN" "http://www.w3.org/Graphics/SVG/1.1/DTD/svg11.dtd"><svg t="1531804976272" class="icon" style="" viewBox="0 0 1024 1024" version="1.1" xmlns="http://www.w3.org/2000/svg" p-id="1649" xmlns:xlink="http://www.w3.org/1999/xlink" width="200" height="200"><defs><style type="text/css"></style></defs><path d="M801.5872 7.3728a222.7712 222.7712 0 0 0-222.4128 222.6176 222.72 222.72 0 0 0 222.4128 222.4128A222.72 222.72 0 0 0 1024 229.9904 222.7712 222.7712 0 0 0 801.5872 7.3728z m0 202.0352c41.7792 0 75.8272 34.048 75.8272 75.9296 0 34.56-23.552 63.488-55.3984 72.4992v10.752a20.48 20.48 0 1 1-40.96 0v-10.752a75.5712 75.5712 0 0 1-55.3984-72.4992 20.48 20.48 0 1 1 40.96 0c0 19.0976 15.6672 34.6624 34.9184 34.6624a34.816 34.816 0 1 0 0-69.632 75.9808 75.9808 0 0 1-75.8784-75.8784c0-34.6112 23.552-63.5392 55.3984-72.4992v-10.752a20.48 20.48 0 1 1 40.96 0v10.752c31.8464 8.96 55.3984 37.888 55.3984 72.4992a20.48 20.48 0 1 1-40.96 0 34.816 34.816 0 0 0-34.9184-34.7136 34.8672 34.8672 0 1 0 0 69.632zM356.5568 377.4464a164.3008 164.3008 0 0 0 164.0448-164.0448A164.4032 164.4032 0 0 0 356.5568 49.3568 164.3008 164.3008 0 0 0 192.512 213.4016a164.1472 164.1472 0 0 0 164.0448 164.0448zM534.1184 469.1968H432.3328a20.48 20.48 0 0 0-19.2512 13.5168l-56.5248 152.3712-56.7296-152.3712a20.48 20.48 0 0 0-19.2512-13.5168H178.7904A179.3024 179.3024 0 0 0 0 648.3968v306.7904c0 11.264 9.216 20.48 20.48 20.48h671.9488c11.4688 0 20.48-9.216 20.48-20.48v-306.7904c0-98.7136-80.2816-179.2-178.7904-179.2z"  p-id="1650"></path></svg>