<?xml version="1.0" encoding="UTF-8"?>
<svg width="20px" height="20px" viewBox="0 0 20 20" version="1.1" xmlns="http://www.w3.org/2000/svg" xmlns:xlink="http://www.w3.org/1999/xlink">
    <!-- Generator: Sketch 50.2 (55047) - http://www.bohemiancoding.com/sketch -->
    <defs></defs>
    <g id="Symbols" stroke="none" stroke-width="1" fill="none" fill-rule="evenodd">
        <g id="账户管理" fill="#6F7178" fill-rule="nonzero">
            <g id="noun_account_1401390">
                <g id="Group">
                    <path d="M15.6560058,0.14400636 C13.2600098,0.14400636 11.3120117,2.09600832 11.3120117,4.4920044 C11.3120117,6.8839966 13.2600097,8.83599856 15.6560058,8.83599856 C18.052002,8.83599856 20,6.8839966 20,4.4920044 C20,2.09600832 18.052002,0.14400636 15.6560058,0.14400636 Z M15.6552246,4.09010008 C16.4724121,4.09010008 17.1372558,4.75513916 17.1372558,5.57252196 C17.1372558,6.2482544 16.6773682,6.81329344 16.0552246,6.98863524 L16.0552246,7.19810788 C16.0552246,7.41900632 15.8763184,7.59810788 15.6552246,7.59810788 C15.4341308,7.59810788 15.2552246,7.41900632 15.2552246,7.19810788 L15.2552246,6.98868404 C14.6327637,6.81339108 14.1728027,6.2483032 14.1728027,5.57252192 C14.1728027,5.35162348 14.351709,5.17252192 14.5728027,5.17252192 C14.7938965,5.17252192 14.9728027,5.35162348 14.9728027,5.57252192 C14.9728027,5.94615472 15.2790527,6.25025628 15.6552246,6.25025628 C16.0313965,6.25025628 16.3372558,5.94615472 16.3372558,5.57252192 C16.3372558,5.19615472 16.0313965,4.89010004 15.6552246,4.89010004 C14.8376465,4.89010004 14.1728027,4.22525628 14.1728027,3.40787348 C14.1728027,2.73209224 14.6327636,2.16700432 15.2552246,1.99171136 L15.2552246,1.7822876 C15.2552246,1.56138916 15.4341308,1.3822876 15.6552246,1.3822876 C15.8763184,1.3822876 16.0552246,1.56138916 16.0552246,1.7822876 L16.0552246,1.99176024 C16.6773682,2.16710204 17.1372558,2.73214108 17.1372558,3.40787352 C17.1372558,3.62877196 16.9583496,3.80787352 16.7372558,3.80787352 C16.5161621,3.80787352 16.3372558,3.62877196 16.3372558,3.40787352 C16.3372558,3.03424072 16.0313965,2.73013916 15.6552246,2.73013916 C15.2790527,2.73013916 14.9728027,3.03424072 14.9728027,3.40787352 C14.9728027,3.7840454 15.2790527,4.09010008 15.6552246,4.09010008 Z" id="Shape"></path>
                    <path d="M6.96401368,7.37200928 C8.72800292,7.37200928 10.1680176,5.93599852 10.1680176,4.16800536 C10.1680176,2.40399168 8.72800296,0.96400144 6.96401368,0.96400144 C5.19599612,0.96400144 3.76000976,2.40399168 3.76000976,4.16800536 C3.76000976,5.93599852 5.19599608,7.37200928 6.96401368,7.37200928 Z" id="Shape"></path>
                    <path d="M10.4320068,9.16400148 L8.44399416,9.16400148 C8.276001,9.16400148 8.12800296,9.2680054 8.0680176,9.42799072 L6.96401368,12.4039917 L5.85600588,9.42799072 C5.79599612,9.26800536 5.64799808,9.16400148 5.48000492,9.16400148 L3.4920166,9.16400148 C1.56801756,9.16400148 0,10.7359985 0,12.6640015 L0,18.6559937 C0,18.8759888 0.18000488,19.0559937 0.4,19.0559937 L13.523999,19.0559937 C13.7479981,19.0559937 13.923999,18.8759888 13.923999,18.6559937 L13.923999,12.6640015 C13.923999,10.7359985 12.3560058,9.16400148 10.4320068,9.16400148 Z" id="Shape"></path>
                </g>
            </g>
        </g>
    </g>
</svg>