<?xml version="1.0" standalone="no"?><!DOCTYPE svg PUBLIC "-//W3C//DTD SVG 1.1//EN" "http://www.w3.org/Graphics/SVG/1.1/DTD/svg11.dtd"><svg t="1531804935692" class="icon" style="" viewBox="0 0 1137 1024" version="1.1" xmlns="http://www.w3.org/2000/svg" p-id="1541" xmlns:xlink="http://www.w3.org/1999/xlink" width="222.0703125" height="200"><defs><style type="text/css"></style></defs><path d="M44.771556 173.511111l41.187555-12.060444 99.214222-30.264889v244.508444l113.777778-21.788444v-256.568889l101.717333-30.321778L503.466667 36.807111c1.194667 0 2.446222 0 2.446222-1.251555h2.389333a45.852444 45.852444 0 0 1 18.204445 0h2.389333c1.194667 0 2.389333 0 2.389333 1.251555l191.260445 56.888889a304.867556 304.867556 0 0 0-58.083556 87.096889l-98.076444-29.013333v746.780444l359.537778-107.690667v-217.884444h1.137777c35.157333 0 69.063111-7.281778 99.328-18.204445v272.384a51.598222 51.598222 0 0 1-36.352 48.412445l-457.500444 138.012444c-4.835556 1.194667-9.671111 2.389333-14.563556 2.389334-4.835556 0-9.671111-1.194667-14.506666-2.389334L44.771556 875.52a49.436444 49.436444 0 0 1-36.295112-48.355556V221.866667c0-22.926222 14.506667-42.325333 36.295112-48.355556z m882.346666-85.902222a202.524444 202.524444 0 0 1 202.183111 202.126222 202.524444 202.524444 0 0 1-202.126222 202.183111 202.524444 202.524444 0 0 1-202.126222-202.183111 201.728 201.728 0 0 1 202.126222-202.126222zM825.571556 295.822222l37.546666 37.546667 38.684445 38.684444 38.684444-38.684444 88.405333-88.405333-38.684444-38.684445-88.405333 88.291556-37.546667-37.546667-38.684444 38.798222z"  p-id="1542"></path></svg>