<?xml version="1.0" encoding="UTF-8"?>
<svg width="20px" height="18px" viewBox="0 0 20 18" version="1.1" xmlns="http://www.w3.org/2000/svg" xmlns:xlink="http://www.w3.org/1999/xlink">
    <!-- Generator: Sketch 50.2 (55047) - http://www.bohemiancoding.com/sketch -->
    <defs></defs>
    <g id="Symbols" stroke="none" stroke-width="1" fill="none" fill-rule="evenodd">
        <g id="订单管理" transform="translate(0.000000, -1.000000)" fill="#6F7178" fill-rule="nonzero">
            <g id="noun_order_371293" transform="translate(0.000000, 1.497596)">
                <path d="M0.787234043,2.55319149 L1.5106383,2.34042553 C1.5106383,2.34042553 1.5106383,2.34042553 1.5106383,2.34042553 L3.25531915,1.80851064 L3.25531915,6.10638298 L5.25531915,5.72340426 L5.25531915,1.21276596 L7.04255319,0.680851064 L8.85106383,0.14893617 C8.87234043,0.14893617 8.89361702,0.14893617 8.89361702,0.127659574 C8.91489362,0.127659574 8.91489362,0.127659574 8.93617021,0.127659574 C9.04255319,0.106382979 9.14893617,0.106382979 9.25531915,0.127659574 C9.27659574,0.127659574 9.27659574,0.127659574 9.29787234,0.127659574 C9.31914894,0.127659574 9.34042553,0.127659574 9.34042553,0.14893617 L12.7021277,1.14893617 C12.2765957,1.59574468 11.9361702,2.10638298 11.6808511,2.68085106 L9.95744681,2.17021277 L9.95744681,15.2978723 L16.2765957,13.4042553 L16.2765957,9.57446809 C16.2765957,9.57446809 16.2978723,9.57446809 16.2978723,9.57446809 C16.9148936,9.57446809 17.5106383,9.44680851 18.0425532,9.25531915 L18.0425532,14.0425532 C18.0425532,14.4255319 17.787234,14.7659574 17.4042553,14.893617 L9.36170213,17.3191489 C9.27659574,17.3404255 9.19148936,17.3617021 9.10638298,17.3617021 C9.0212766,17.3617021 8.93617021,17.3404255 8.85106383,17.3191489 L0.787234043,14.893617 C0.404255319,14.787234 0.14893617,14.4468085 0.14893617,14.0425532 L0.14893617,3.40425532 C0.14893617,3 0.404255319,2.65957447 0.787234043,2.55319149 Z M16.2978723,1.04255319 C18.2553191,1.04255319 19.8510638,2.63829787 19.8510638,4.59574468 C19.8510638,6.55319149 18.2553191,8.14893617 16.2978723,8.14893617 C14.3404255,8.14893617 12.7446809,6.55319149 12.7446809,4.59574468 C12.7446809,2.61702128 14.3404255,1.04255319 16.2978723,1.04255319 Z M14.5106383,4.70212766 L15.1702128,5.36170213 L15.8510638,6.04255319 L16.5319149,5.36170213 L18.0851064,3.80851064 L17.4042553,3.12765957 L15.8510638,4.68085106 L15.1914894,4.0212766 L14.5106383,4.70212766 Z" id="Shape"></path>
            </g>
        </g>
    </g>
</svg>