<?xml version="1.0" encoding="UTF-8"?>
<svg width="20px" height="20px" viewBox="0 0 20 20" version="1.1" xmlns="http://www.w3.org/2000/svg" xmlns:xlink="http://www.w3.org/1999/xlink">
    <!-- Generator: Sketch 50.2 (55047) - http://www.bohemiancoding.com/sketch -->
    <defs></defs>
    <g id="Symbols" stroke="none" stroke-width="1" fill="none" fill-rule="evenodd">
        <g id="配件管理" fill="#6F7178" fill-rule="nonzero">
            <g id="noun_Sprocket_1287436">
                <path d="M11.7310345,19.2068966 C11.6758621,18.442069 11.0068966,17.8696552 10.2413793,17.9248276 C9.55931034,17.9724138 9.00689655,18.5248276 8.95931034,19.2068966 C8.44896552,19.137931 7.94482759,19.0206897 7.44896552,18.8696552 C7.73172414,18.1524138 7.38,17.3455172 6.66965517,17.0627586 C6.02827586,16.8075862 5.29724138,17.0627586 4.95241379,17.6627586 C4.51793103,17.3731034 4.11793103,17.0482759 3.73862069,16.6972414 C4.30413793,16.18 4.33862069,15.2972414 3.82137931,14.7317241 C3.35241379,14.2282759 2.58,14.1386207 2.00758621,14.5317241 C1.75241379,14.0834483 1.52482759,13.6144828 1.33862069,13.1317241 C2.06896552,12.9103448 2.48275862,12.1310345 2.26206897,11.4 C2.06206897,10.737931 1.40689655,10.3234483 0.717241379,10.4275862 C0.675862069,9.91724138 0.675862069,9.39310345 0.717241379,8.88275862 C1.47586207,9 2.1862069,8.47586207 2.30344828,7.71793103 C2.4137931,7.03448276 2,6.37931034 1.33793103,6.17931034 C1.52413793,5.69655172 1.75172414,5.22758621 2.00689655,4.77931034 C2.64137931,5.2137931 3.51034483,5.05517241 3.94482759,4.42068966 C4.33172414,3.84827586 4.24827586,3.08275862 3.73793103,2.6137931 C4.11724138,2.26206897 4.51724138,1.93793103 4.95172414,1.64827586 C5.33103448,2.31724138 6.17931034,2.54482759 6.84827586,2.15862069 C7.44827586,1.82068966 7.70344828,1.08965517 7.44827586,0.44137931 C7.94482759,0.289655172 8.44827586,0.172413793 8.95862069,0.104137931 C9.0137931,0.868965517 9.67586207,1.44137931 10.4413793,1.3862069 C11.1310345,1.33862069 11.6834483,0.786206897 11.7310345,0.104137931 C12.2413793,0.173103448 12.7455172,0.290344828 13.2413793,0.44137931 C12.9586207,1.15862069 13.3103448,1.96551724 14.0206897,2.24827586 C14.662069,2.50344828 15.3931034,2.24827586 15.737931,1.64827586 C16.1655172,1.93793103 16.5724138,2.26275862 16.9517241,2.6137931 C16.3862069,3.13103448 16.3517241,4.0137931 16.8689655,4.57931034 C17.337931,5.08275862 18.1103448,5.17241379 18.6827586,4.77931034 C18.937931,5.22758621 19.1655172,5.69655172 19.3517241,6.17931034 C18.6144828,6.4 18.2,7.17931034 18.4275862,7.91034483 C18.6275862,8.57241379 19.2827586,8.98689655 19.9724138,8.88275862 C20.0068966,9.39310345 20.0068966,9.91724138 19.9724138,10.4275862 C19.2068966,10.3103448 18.4965517,10.8344828 18.3862069,11.5924138 C18.2758621,12.2751724 18.6889655,12.9303448 19.3510345,13.1303448 C19.1648276,13.6131034 18.9372414,14.082069 18.682069,14.5303448 C18.0475862,14.0958621 17.1786207,14.2544828 16.7441379,14.8889655 C16.3572414,15.4613793 16.4406897,16.2268966 16.9510345,16.6958621 C16.5717241,17.0475862 16.1648276,17.3717241 15.7372414,17.6613793 C15.3572414,16.9917241 14.5096552,16.7641379 13.8406897,17.1510345 C13.2406897,17.4889655 12.9855172,18.22 13.2406897,18.8682759 C12.7448276,19.0206897 12.2413793,19.137931 11.7310345,19.2068966 Z M13.7931034,9.65517241 C13.7931034,7.75172414 12.2482759,6.20689655 10.3448276,6.20689655 C8.44137931,6.20689655 6.89655172,7.75172414 6.89655172,9.65517241 C6.89655172,11.5586207 8.44137931,13.1034483 10.3448276,13.1034483 C12.2482759,13.1034483 13.7931034,11.5586207 13.7931034,9.65517241 Z" id="Shape"></path>
            </g>
        </g>
    </g>
</svg>