<?xml version="1.0" standalone="no"?><!DOCTYPE svg PUBLIC "-//W3C//DTD SVG 1.1//EN" "http://www.w3.org/Graphics/SVG/1.1/DTD/svg11.dtd"><svg t="1531805049542" class="icon" style="" viewBox="0 0 1024 1024" version="1.1" xmlns="http://www.w3.org/2000/svg" p-id="1757" xmlns:xlink="http://www.w3.org/1999/xlink" width="200" height="200"><defs><style type="text/css"></style></defs><path d="M579.29386667 983.3984a71.168 71.168 0 0 0-141.9264 0 491.7248 491.7248 0 0 1-77.312-17.2544 71.3728 71.3728 0 0 0-39.936-92.5184 71.0656 71.0656 0 0 0-87.9104 30.72 499.1488 499.1488 0 0 1-62.1056-49.4592c28.928-26.4704 30.72-71.68 4.1984-100.608a71.68 71.68 0 0 0-92.8256-10.24 533.7088 533.7088 0 0 1-34.304-71.68 71.2704 71.2704 0 0 0-31.744-138.4448 492.9536 492.9536 0 0 1 0-79.104 71.3216 71.3216 0 0 0 81.152-59.648 70.5536 70.5536 0 0 0-49.408-78.7968c9.5232-24.6784 21.1968-48.6912 34.2528-71.68a71.3728 71.3728 0 0 0 99.2256-18.3296 71.168 71.168 0 0 0-10.5984-92.5184c19.456-18.0224 39.936-34.6112 62.1568-49.4592a70.656 70.656 0 0 0 97.0752 26.112c30.72-17.2544 43.776-54.6816 30.72-87.9104 25.4464-7.7312 51.2-13.7728 77.312-17.2544a71.168 71.168 0 1 0 141.9264 0c26.1632 3.584 52.0192 9.5232 77.3632 17.2544a71.3728 71.3728 0 0 0 39.936 92.5184c32.8192 13.056 70.2464 0 87.9104-30.72 21.9136 14.848 42.7008 31.488 62.1568 49.4592-28.9792 26.4704-30.72 71.68-4.2496 100.608a71.68 71.68 0 0 0 92.8768 10.24c13.056 22.9888 24.7296 47.0016 34.2528 71.68a70.656 70.656 0 0 0-47.3088 88.6272c10.24 33.8944 43.776 55.1424 79.0528 49.8176 1.792 26.112 1.792 52.9408 0 79.104a70.9632 70.9632 0 0 0-81.2032 59.5968c-5.632 34.9696 15.5136 68.5056 49.408 78.7456-9.5232 24.7296-21.1968 48.7424-34.2528 71.68a71.3728 71.3728 0 0 0-99.2256 18.3808 71.168 71.168 0 0 0 10.5984 92.5184c-19.456 18.0224-40.2432 34.6112-62.1568 49.408a70.656 70.656 0 0 0-97.0752-26.112c-30.72 17.3056-43.776 54.7328-30.72 87.9104-25.3952 7.8336-51.2 13.824-77.312 17.3568z m105.5744-489.0624a176.64 176.64 0 0 0-176.5376-176.5376 176.64 176.64 0 0 0-176.5376 176.5376 176.64 176.64 0 0 0 176.5376 176.5376 176.64 176.64 0 0 0 176.5376-176.5376z"  p-id="1758"></path></svg>