<?xml version="1.0" standalone="no"?><!DOCTYPE svg PUBLIC "-//W3C//DTD SVG 1.1//EN" "http://www.w3.org/Graphics/SVG/1.1/DTD/svg11.dtd"><svg t="1531804865022" class="icon" style="" viewBox="0 0 1024 1024" version="1.1" xmlns="http://www.w3.org/2000/svg" p-id="1433" xmlns:xlink="http://www.w3.org/1999/xlink" width="200" height="200"><defs><style type="text/css"></style></defs><path d="M990.5664 404.3776l-21.9648-14.6432a66.5088 66.5088 0 0 1-26.112-73.1136l7.3216-25.088c11.52-38.656-14.6432-77.312-53.248-83.6096L870.4 203.776a66.56 66.56 0 0 1-55.3984-54.3744l-4.1472-26.112c-6.2976-39.68-45.9776-63.744-84.6336-52.224l-25.088 7.3216a66.5088 66.5088 0 0 1-73.1648-25.088L612.352 32.4096A66.6624 66.6624 0 0 0 513.024 21.9648l-18.7904 17.7664a68.0448 68.0448 0 0 1-77.312 9.3696l-23.04-12.544c-34.4576-18.7904-79.36-3.072-94.0032 33.4336l-9.4208 24.064c-10.4448 26.112-36.5568 42.8032-64.768 41.7792l-26.112-1.024c-39.7312-2.0992-73.1648 31.3344-69.9904 71.0144l2.048 26.112a66.2016 66.2016 0 0 1-40.704 65.8432l-24.064 10.4448C30.3104 323.9424 14.6432 367.8208 34.4576 402.2784l12.544 23.04c14.6432 25.0368 10.4448 55.296-8.3456 77.312l-17.7664 19.8144c-26.112 30.3104-20.8896 76.288 11.52 99.2768l21.9136 14.6432c23.04 15.6672 34.5088 45.9776 26.112 73.1136l-7.2704 25.088c-11.52 38.656 14.592 77.312 53.248 83.6096l26.112 4.1472a66.56 66.56 0 0 1 55.3984 54.3232l4.1984 26.112c6.2464 39.7312 45.9776 63.7952 84.6336 52.2752l25.088-7.3216c27.136-8.3456 56.4224 2.0992 73.1136 25.088l14.6432 20.8896a66.6624 66.6624 0 0 0 99.2768 10.4448l18.7904-17.7664a68.0448 68.0448 0 0 1 77.312-9.3696l23.04 12.544c34.4576 18.7904 79.36 3.072 94.0032-33.4848l9.4208-24.0128c10.4448-26.112 36.5568-42.8544 64.768-41.7792l26.112 1.024c39.7312 2.0992 73.1648-31.3344 70.0416-71.0656l-2.0992-26.112a66.2016 66.2016 0 0 1 40.7552-65.8432l24.064-10.4448c36.5056-15.6672 52.224-59.5456 32.3584-94.0032l-12.544-23.04c-14.6432-25.088-10.4448-55.296 8.3456-77.312l17.7664-19.8144a66.56 66.56 0 0 0-10.4448-99.2768z m-507.8016 31.3344c8.3456 10.4448 24.0128 19.8656 47.0016 30.3104 53.248 22.9888 92.9792 45.9776 118.0672 67.9424 25.088 22.9888 37.632 55.3472 37.632 97.1776 0 39.68-12.544 72.0896-37.632 97.1264-21.9648 20.9408-49.152 34.5088-83.6096 40.7552v58.5216a13.824 13.824 0 0 1-13.568 13.6192h-50.176a13.824 13.824 0 0 1-13.568-13.6192v-56.4224c-42.8544-5.2224-78.336-20.8896-106.5472-45.9776-26.112-24.064-40.7552-58.5216-42.8544-102.4 0-9.3696 7.3216-16.6912 15.6672-16.6912l82.5344-1.024a16.896 16.896 0 0 1 16.7424 14.592c2.048 20.8896 8.3456 36.5568 17.7664 47.0016 12.544 12.544 28.16 18.8416 48.0256 18.8416 16.7424 0 29.2864-5.2224 37.632-14.6432 8.3456-9.4208 12.544-21.9648 12.544-37.632 0-17.7664-4.1984-32.3584-13.568-42.8032-8.3968-10.4448-24.064-19.8656-47.0528-29.2864-54.272-21.9136-94.0032-43.8784-119.0912-65.8432-25.088-21.9136-37.632-55.3472-37.632-98.2016 0-38.656 13.568-71.0656 39.7312-96.1024 24.0128-23.04 55.3472-37.632 94.0032-42.8544V197.4784a13.824 13.824 0 0 1 13.6192-13.568h50.176a13.824 13.824 0 0 1 13.568 13.568v62.72c36.5568 7.2704 64.768 24.0128 86.6816 49.1008 20.9408 24.064 32.4096 55.3472 35.5328 90.88 1.024 9.4208-7.3216 16.7424-15.6672 16.7424l-83.5584 1.024c-8.3968 0-15.7184-6.2464-16.7424-13.568-1.024-17.7664-6.2464-32.4096-13.568-41.7792a46.592 46.592 0 0 0-38.656-18.8416c-16.7424 0-28.2112 5.2224-36.608 15.6672-8.3456 10.4448-11.4688 23.04-11.4688 38.7072 2.048 14.592 6.2464 27.136 14.6432 37.5808z"  p-id="1434"></path></svg>