<?xml version="1.0" encoding="UTF-8"?>
<svg width="20px" height="20px" viewBox="0 0 20 20" version="1.1" xmlns="http://www.w3.org/2000/svg" xmlns:xlink="http://www.w3.org/1999/xlink">
    <!-- Generator: Sketch 50.2 (55047) - http://www.bohemiancoding.com/sketch -->
    <defs></defs>
    <g id="Symbols" stroke="none" stroke-width="1"  fill-rule="evenodd">
        <g id="报价管理" fill="#6F7178" fill-rule="nonzero">
            <g id="noun_price_427297">
                <path  d="M19.3469388,7.89795918 L18.9183673,7.6122449 C18.4693878,7.30612245 18.244898,6.71428571 18.4081633,6.18367347 L18.5510204,5.69387755 C18.7755102,4.93877551 18.2653061,4.18367347 17.5102041,4.06122449 L17,3.97959184 C16.4489796,3.89795918 16.0204082,3.46938776 15.9183673,2.91836735 L15.8367347,2.40816327 C15.7142857,1.63265306 14.9387755,1.16326531 14.1836735,1.3877551 L13.6938776,1.53061224 C13.1632653,1.69387755 12.5918367,1.48979592 12.2653061,1.04081633 L11.9591837,0.632653061 C11.5102041,1.20736754e-15 10.5918367,-0.102040816 10.0204082,0.428571429 L9.65306122,0.775510204 C9.24489796,1.14285714 8.63265306,1.2244898 8.14285714,0.959183673 L7.69387755,0.714285714 C7.02040816,0.346938776 6.14285714,0.653061224 5.85714286,1.36734694 L5.67346939,1.83673469 C5.46938776,2.34693878 4.95918367,2.67346939 4.40816327,2.65306122 L3.89795918,2.63265306 C3.12244898,2.59183673 2.46938776,3.24489796 2.53061224,4.02040816 L2.57142857,4.53061224 C2.6122449,5.08163265 2.28571429,5.6122449 1.7755102,5.81632653 L1.30612245,6.02040816 C0.591836735,6.32653061 0.285714286,7.18367347 0.673469388,7.85714286 L0.918367347,8.30612245 C1.20408163,8.79591837 1.12244898,9.3877551 0.755102041,9.81632653 L0.408163265,10.2040816 C-0.102040816,10.7959184 7.35522754e-16,11.6938776 0.632653061,12.1428571 L1.06122449,12.4285714 C1.51020408,12.7346939 1.73469388,13.3265306 1.57142857,13.8571429 L1.42857143,14.3469388 C1.20408163,15.1020408 1.71428571,15.8571429 2.46938776,15.9795918 L2.97959184,16.0612245 C3.53061224,16.1428571 3.95918367,16.5714286 4.06122449,17.122449 L4.14285714,17.6326531 C4.26530612,18.4081633 5.04081633,18.877551 5.79591837,18.6530612 L6.28571429,18.5102041 C6.81632653,18.3469388 7.3877551,18.5510204 7.71428571,19 L8,19.4081633 C8.44897959,20.0408163 9.36734694,20.1428571 9.93877551,19.6122449 L10.3061224,19.2653061 C10.7142857,18.8979592 11.3265306,18.8163265 11.8163265,19.0816327 L12.2653061,19.3265306 C12.9387755,19.6938776 13.8163265,19.3877551 14.1020408,18.6734694 L14.2857143,18.2040816 C14.4897959,17.6938776 15,17.3673469 15.5510204,17.3877551 L16.0612245,17.4081633 C16.8367347,17.4489796 17.4897959,16.7959184 17.4285714,16.0204082 L17.3877551,15.5102041 C17.3469388,14.9591837 17.6734694,14.4285714 18.1836735,14.2244898 L18.6530612,14.0204082 C19.3673469,13.7142857 19.6734694,12.8571429 19.2857143,12.1836735 L19.0408163,11.7346939 C18.755102,11.244898 18.8367347,10.6530612 19.2040816,10.2244898 L19.5510204,9.83673469 C20.0816327,9.24489796 19.9795918,8.34693878 19.3469388,7.89795918 Z M9.42857143,8.51020408 C9.59183673,8.71428571 9.89795918,8.89795918 10.3469388,9.10204082 C11.3877551,9.55102041 12.1632653,10 12.6530612,10.4285714 C13.1428571,10.877551 13.3877551,11.5102041 13.3877551,12.3265306 C13.3877551,13.1020408 13.1428571,13.7346939 12.6530612,14.2244898 C12.2244898,14.6326531 11.6938776,14.8979592 11.0204082,15.0204082 L11.0204082,16.1632653 C11.0204082,16.3061224 10.8979592,16.4285714 10.755102,16.4285714 L9.7755102,16.4285714 C9.63265306,16.4285714 9.51020408,16.3061224 9.51020408,16.1632653 L9.51020408,15.0612245 C8.67346939,14.9591837 7.97959184,14.6530612 7.42857143,14.1632653 C6.91836735,13.6938776 6.63265306,13.0204082 6.59183673,12.1632653 C6.59183673,11.9795918 6.73469388,11.8367347 6.89795918,11.8367347 L8.51020408,11.8163265 C8.67346939,11.8163265 8.81632653,11.9387755 8.83673469,12.1020408 C8.87755102,12.5102041 9,12.8163265 9.18367347,13.0204082 C9.42857143,13.2653061 9.73469388,13.3877551 10.122449,13.3877551 C10.4489796,13.3877551 10.6938776,13.2857143 10.8571429,13.1020408 C11.0204082,12.9183673 11.1020408,12.6734694 11.1020408,12.3673469 C11.1020408,12.0204082 11.0204082,11.7346939 10.8367347,11.5306122 C10.6734694,11.3265306 10.3673469,11.1428571 9.91836735,10.9591837 C8.85714286,10.5306122 8.08163265,10.1020408 7.59183673,9.67346939 C7.10204082,9.24489796 6.85714286,8.59183673 6.85714286,7.75510204 C6.85714286,7 7.12244898,6.36734694 7.63265306,5.87755102 C8.10204082,5.42857143 8.71428571,5.14285714 9.46938776,5.04081633 L9.46938776,3.85714286 C9.46938776,3.71428571 9.59183673,3.59183673 9.73469388,3.59183673 L10.7142857,3.59183673 C10.8571429,3.59183673 10.9795918,3.71428571 10.9795918,3.85714286 L10.9795918,5.08163265 C11.6938776,5.2244898 12.244898,5.55102041 12.6734694,6.04081633 C13.0816327,6.51020408 13.3061224,7.12244898 13.3673469,7.81632653 C13.3877551,8 13.2244898,8.14285714 13.0612245,8.14285714 L11.4285714,8.16326531 C11.2653061,8.16326531 11.122449,8.04081633 11.1020408,7.89795918 C11.0816327,7.55102041 10.9795918,7.26530612 10.8367347,7.08163265 C10.6530612,6.83673469 10.3877551,6.71428571 10.0816327,6.71428571 C9.75510204,6.71428571 9.53061224,6.81632653 9.36734694,7.02040816 C9.20408163,7.2244898 9.14285714,7.46938776 9.14285714,7.7755102 C9.18367347,8.06122449 9.26530612,8.30612245 9.42857143,8.51020408 Z" id="Shape"></path>
            </g>
        </g>
    </g>
</svg>