<?xml version="1.0" encoding="UTF-8"?>
<svg width="20px" height="20px" viewBox="0 0 20 20" version="1.1" xmlns="http://www.w3.org/2000/svg" xmlns:xlink="http://www.w3.org/1999/xlink">
    <!-- Generator: Sketch 50.2 (55047) - http://www.bohemiancoding.com/sketch -->
    <defs></defs>
    <g id="Symbols" stroke="none" stroke-width="1" fill="none" fill-rule="evenodd" >
        <g id="退货管理">
            <g id="Group-5">
                <g id="ic_archive_24px">
                    <path d="M18.8958333,2.94791667 L17.4479167,1.19791667 C17.1666667,0.84375 16.7395833,0.625 16.25,0.625 L3.75,0.625 C3.26041667,0.625 2.83333333,0.84375 2.54166667,1.19791667 L1.10416667,2.94791667 C0.802083333,3.30208333 0.625,3.77083333 0.625,4.27083333 L0.625,17.2916667 C0.625,18.4375 1.5625,19.375 2.70833333,19.375 L17.2916667,19.375 C18.4375,19.375 19.375,18.4375 19.375,17.2916667 L19.375,4.27083333 C19.375,3.77083333 19.1979167,3.30208333 18.8958333,2.94791667 Z M2.83333333,2.70833333 L3.67708333,1.66666667 L16.1770833,1.66666667 L17.15625,2.70833333 L2.83333333,2.70833333 Z" id="Shape" fill="#6F7178" fill-rule="nonzero"></path>
                    <text id="退" font-family="PingFangSC-Regular, PingFang SC" font-size="12" font-weight="normal" line-spacing="12" letter-spacing="0.3937006" fill="#FFFFFF">
                        <tspan x="4" y="17">退</tspan>
                    </text>
                </g>
                <polygon id="Shape" points="0 0 20 0 20 20 0 20"></polygon>
            </g>
        </g>
    </g>
</svg>