<?xml version="1.0" standalone="no"?><!DOCTYPE svg PUBLIC "-//W3C//DTD SVG 1.1//EN" "http://www.w3.org/Graphics/SVG/1.1/DTD/svg11.dtd"><svg t="1531805527255" class="icon" style="" viewBox="0 0 1024 1024" version="1.1" xmlns="http://www.w3.org/2000/svg" p-id="1158" xmlns:xlink="http://www.w3.org/1999/xlink" width="200" height="200"><defs><style type="text/css"></style></defs><path d="M967.4752 150.9376l-74.1376-89.6A77.4144 77.4144 0 0 0 832 32H192c-25.088 0-46.9504 11.2128-61.8496 29.3376l-73.6256 89.6A104.448 104.448 0 0 0 32 218.624v666.624a107.008 107.008 0 0 0 106.6496 106.7008h746.7008a107.008 107.008 0 0 0 106.6496-106.6496V218.624c0-25.6-9.0624-49.6128-24.576-67.7376z m-822.4256-12.288l43.2128-53.2992h640l50.176 53.2992H144.9984z m137.1648 137.216c41.7792 32.5632 76.8 64.512 105.0624 96.4608l-31.9488 31.9488c-24.576-30.72-58.9824-63.8976-103.2192-99.5328l30.1056-28.8768z m348.9792 542.5152c-32.5632 0-68.1984-0.6144-106.2912-1.2288-38.7072-0.6144-70.0416-4.3008-94.0032-11.0592-23.3472-7.3728-44.8512-22.7328-63.2832-44.8512-7.9872-10.4448-15.36-15.36-22.7328-15.36-14.7456 0-39.3216 28.2624-73.1136 84.7872l-33.1776-30.1056c32.5632-51.6096 61.44-82.944 86.6304-94.0032v-186.7776H237.9776V479.232h128.4096v230.4c4.9152 3.6864 9.216 7.9872 14.1312 13.5168 14.7456 17.8176 30.1056 30.72 46.08 38.7072 18.432 8.6016 45.4656 13.5168 80.4864 14.7456 31.9488 0.6144 71.2704 1.2288 117.9648 1.2288 30.72 0 62.0544-0.6144 94.0032-1.2288a1604.608 1604.608 0 0 0 73.728-2.4576l-11.0592 44.2368h-150.528z m-60.2112-275.8656c33.792 19.6608 65.1264 39.3216 94.6176 60.2112 23.3472-20.2752 43.008-41.1648 60.2112-62.0544l31.9488 24.576c-19.6608 23.3472-39.3216 43.6224-59.5968 61.44a1201.664 1201.664 0 0 1 82.944 71.8848l-27.0336 32.5632c-54.0672-56.5248-123.4944-109.3632-208.2816-158.5152l25.1904-30.1056z m-79.872-119.808v54.6816H696.32V422.7072H491.1104z m205.2096-36.864V331.1616H491.1104v54.6816H696.32z m-205.2096 131.4816v165.888a1190.656 1190.656 0 0 0 121.0368-28.2624l9.8304 39.936c-47.9232 12.9024-108.1344 25.8048-181.248 38.0928l-9.216-37.4784c11.0592-4.3008 16.5888-10.4448 16.5888-18.432V291.2256h291.84v226.0992h-248.832z"  p-id="1159"></path></svg>