<?xml version="1.0" encoding="UTF-8"?>
<svg width="20px" height="18px" viewBox="0 0 20 18" version="1.1" xmlns="http://www.w3.org/2000/svg" xmlns:xlink="http://www.w3.org/1999/xlink">
    <!-- Generator: Sketch 50.2 (55047) - http://www.bohemiancoding.com/sketch -->
    <defs></defs>
    <g id="Symbols" stroke="none" stroke-width="1" fill="none" fill-rule="evenodd">
        <g id="统计" fill="#6F7178" fill-rule="nonzero">
            <g id="noun_statistic_1033400">
                <path d="M7.85714286,14.2857143 L7.85714286,0.357142857 C7.85714286,0.142857143 8,0 8.21428571,0 L11.7857143,0 C12,0 12.1428571,0.142857143 12.1428571,0.357142857 L12.1428571,14.2857143 C12.1428571,14.5 12,14.6428571 11.7857143,14.6428571 L8.21428571,14.6428571 C8,14.6428571 7.85714286,14.5 7.85714286,14.2857143 Z M2.5,14.6428571 L6.07142857,14.6428571 C6.28571429,14.6428571 6.42857143,14.5 6.42857143,14.2857143 L6.42857143,8.21428571 C6.42857143,8 6.28571429,7.85714286 6.07142857,7.85714286 L2.5,7.85714286 C2.28571429,7.85714286 2.14285714,8 2.14285714,8.21428571 L2.14285714,14.2857143 C2.14285714,14.5 2.28571429,14.6428571 2.5,14.6428571 Z M13.9285714,14.6428571 L17.5,14.6428571 C17.7142857,14.6428571 17.8571429,14.5 17.8571429,14.2857143 L17.8571429,3.92857143 C17.8571429,3.71428571 17.7142857,3.57142857 17.5,3.57142857 L13.9285714,3.57142857 C13.7142857,3.57142857 13.5714286,3.71428571 13.5714286,3.92857143 L13.5714286,14.2857143 C13.5714286,14.5 13.7142857,14.6428571 13.9285714,14.6428571 Z M19.2857143,16.0714286 L0.714285714,16.0714286 C0.321428571,16.0714286 0,16.3928571 0,16.7857143 C0,17.1785714 0.321428571,17.5 0.714285714,17.5 L19.2857143,17.5 C19.6785714,17.5 20,17.1785714 20,16.7857143 C20,16.3928571 19.6785714,16.0714286 19.2857143,16.0714286 Z" id="Shape"></path>
            </g>
        </g>
    </g>
</svg>