<?xml version="1.0" standalone="no"?><!DOCTYPE svg PUBLIC "-//W3C//DTD SVG 1.1//EN" "http://www.w3.org/Graphics/SVG/1.1/DTD/svg11.dtd"><svg t="1531804669546" class="icon" style="" viewBox="0 0 1137 1024" version="1.1" xmlns="http://www.w3.org/2000/svg" p-id="1217" xmlns:xlink="http://www.w3.org/1999/xlink" width="222.0703125" height="200"><defs><style type="text/css"></style></defs><path d="M446.976569 812.714667V20.309333C446.976569 8.135111 455.11168 0 467.285902 0h203.207111c12.174222 0 20.309333 8.135111 20.309334 20.309333v792.405334c0 12.174222-8.135111 20.309333-20.309334 20.309333H467.285902c-12.174222 0-20.309333-8.135111-20.309333-20.309333z m-304.753778 20.309333h203.150222c12.231111 0 20.366222-8.135111 20.366223-20.309333V467.285333c0-12.174222-8.135111-20.309333-20.366223-20.309333H142.222791c-12.174222 0-20.309333 8.135111-20.309333 20.309333v345.429334c0 12.174222 8.135111 20.309333 20.309333 20.309333z m650.183111 0H995.556124c12.174222 0 20.309333-8.135111 20.309334-20.309333V223.516444c0-12.231111-8.135111-20.366222-20.309334-20.366222h-203.150222c-12.231111 0-20.366222 8.135111-20.366222 20.366222v589.198223c0 12.174222 8.135111 20.309333 20.366222 20.309333z m304.753778 81.237333H40.619236a40.732444 40.732444 0 0 0-40.618667 40.675556c0 22.357333 18.261333 40.618667 40.618667 40.618667h1056.540444a40.732444 40.732444 0 0 0 40.618667-40.618667 40.732444 40.732444 0 0 0-40.618667-40.675556z"  p-id="1218"></path></svg>